<svg width="291" height="264" viewBox="0 0 291 264" fill="none" xmlns="http://www.w3.org/2000/svg">
<path d="M156.918 24.256L190.28 58.0475L126.142 165.396L52.2353 86.3429L156.918 24.256Z" fill="url(#paint0_linear_2007_36)"/>
<rect x="151.664" y="242.8" width="139.336" height="15.7739" rx="2" fill="#6AB3F2"/>
<path d="M152.599 248.09C151.29 247.074 151.055 245.193 152.075 243.887L236.707 135.563C237.387 134.693 238.646 134.536 239.519 135.213L248.824 142.427C249.696 143.104 249.853 144.359 249.173 145.229L163.925 254.341C163.245 255.211 161.986 255.368 161.113 254.691L152.599 248.09Z" fill="#6AB3F2"/>
<rect width="99.0479" height="15.7739" rx="2" transform="matrix(-0.422909 -0.906172 0.907356 -0.420364 234.072 181.65)" fill="#6AB3F2"/>
<path d="M191.886 97.669C190.868 98.0978 189.693 97.6211 189.262 96.6043L180.552 76.0864C180.121 75.0696 180.596 73.8978 181.614 73.4691L194.436 68.0688C198.508 66.3539 203.209 68.2606 204.935 72.3277L211.691 88.2431C211.907 88.7514 211.669 89.3373 211.16 89.5517L191.886 97.669Z" fill="#6AB3F2"/>
<path d="M177.826 15.5762C188.715 15.1959 197.85 23.7147 198.23 34.6032C198.457 41.0931 195.521 46.9591 190.808 50.7207C192.66 55.5275 193.759 60.7191 193.949 66.1566C194.577 84.1553 185.111 100.164 170.635 108.736L103.855 46.7187C111.366 31.5871 126.725 20.9499 144.793 20.3188C151.162 20.0964 157.281 21.1403 162.911 23.2205C166.376 18.747 171.729 15.7891 177.826 15.5762Z" fill="#6AB3F2"/>
<path d="M9.33887 182.297C20.345 179.29 38.3632 179.576 52.5801 179.68V203.513C40.6619 204.637 34.7023 209.846 34.7021 219.139C34.7021 228.433 40.6618 233.641 52.5801 234.765V263.725C36.2404 263.048 23.5331 259.144 14.459 252.01C4.81956 244.321 0 233.364 0 219.139C1.07152e-10 208.377 -4.29813e-05 203.365 0.569336 195.3C0.981204 189.466 3.69736 183.839 9.33887 182.297Z" fill="#6AB3F2"/>
<path d="M44.6931 205.227C48.1681 203.984 52.5496 203.363 57.8376 203.363C73.261 203.363 80.9733 208.649 80.9734 219.221C80.9734 229.794 73.261 235.08 57.8376 235.08C52.5495 235.08 48.1681 234.458 44.6931 233.216V263.202C48.8026 263.675 53.184 263.914 57.8376 263.914C76.7313 263.914 91.1914 259.974 101.217 252.093C110.856 244.403 115.676 233.446 115.676 219.221C115.676 208.459 115.676 203.447 115.106 195.383C114.694 189.549 111.978 183.921 106.337 182.38C93.9195 178.987 72.5771 179.787 57.8376 179.787C54.0263 179.787 49.5001 179.698 44.6931 179.627V205.227Z" fill="#6AB3F2"/>
<g style="mix-blend-mode:hard-light">
<path d="M44.6931 205.227C48.1681 203.984 52.5496 203.363 57.8376 203.363C73.261 203.363 80.9733 208.649 80.9734 219.221C80.9734 229.794 73.261 235.08 57.8376 235.08C52.5495 235.08 48.1681 234.458 44.6931 233.216V263.202C48.8026 263.675 53.184 263.914 57.8376 263.914C76.7313 263.914 91.1914 259.974 101.217 252.093C110.856 244.403 115.676 233.446 115.676 219.221C115.676 208.459 115.676 203.447 115.106 195.383C114.694 189.549 111.978 183.921 106.337 182.38C93.9195 178.987 72.5771 179.787 57.8376 179.787C54.0263 179.787 49.5001 179.698 44.6931 179.627V205.227Z" fill="url(#paint1_linear_2007_36)"/>
</g>
<path d="M98.8416 185.609C99.3759 186.008 99.3615 186.819 98.8131 187.199C94.4456 190.221 91.9448 190.221 57.8377 190.221C23.6435 190.221 21.2172 190.347 16.8288 187.202C16.2928 186.818 16.2858 186.019 16.8137 185.624C21.2117 182.334 23.6044 182.334 57.8377 182.334C92.019 182.334 94.4563 182.334 98.8416 185.609Z" fill="#17212B"/>
<path d="M82.6604 145.209C84.6482 143.267 87.3216 142.187 90.1005 142.203C92.8795 142.219 95.5401 143.33 97.5052 145.295C99.4702 147.26 100.581 149.921 100.598 152.7C100.614 155.479 99.5337 158.152 97.5916 160.14L95.2137 162.518L96.4062 163.71C97.7369 165.041 98.4845 166.847 98.4845 168.729C98.4845 170.611 97.7369 172.416 96.4062 173.747L93.07 177.083C92.7368 177.416 92.285 177.603 91.8141 177.603C91.3432 177.602 90.8918 177.415 90.559 177.082C90.2263 176.748 90.0395 176.297 90.0398 175.826C90.0402 175.355 90.2276 174.903 90.5608 174.571L93.897 171.238C94.5623 170.573 94.9361 169.67 94.9361 168.729C94.9361 167.788 94.5623 166.885 93.897 166.22L92.7045 165.027L64.3824 193.353C63.1822 194.558 61.6608 195.394 59.9992 195.759L46.0653 198.857C45.7737 198.923 45.4702 198.913 45.1832 198.83C44.8962 198.746 44.6349 198.592 44.4236 198.38C44.2122 198.169 44.0577 197.908 43.9743 197.621C43.8909 197.334 43.8813 197.03 43.9465 196.739L47.0627 182.719C47.4176 181.115 48.2268 179.642 49.3873 178.482L82.6604 145.209Z" fill="#6AB3F2"/>
<path d="M10.729 161.653C11.6502 158.49 13.3546 155.61 15.6845 153.28C18.0144 150.95 20.8944 149.245 24.0579 148.324C24.9201 148.102 25.8247 148.102 26.6869 148.324C27.5541 148.576 28.3418 149.047 28.9741 149.691L34.8368 155.58L59.9173 180.634C60.7056 181.458 61.2199 182.504 61.3895 183.631L62.9932 194.568C63.1159 195.387 63.053 196.222 62.8092 197.013C62.541 197.802 62.0993 198.519 61.521 199.116C60.9321 199.7 60.2222 200.147 59.4441 200.431C58.8999 200.609 58.332 200.696 57.7615 200.694H56.9991L46.0625 199.09C44.9208 198.943 43.8587 198.426 43.0392 197.618L17.9324 172.511L12.0961 166.701C11.4384 166.057 10.9612 165.252 10.7121 164.367C10.463 163.481 10.4507 162.545 10.6764 161.653H10.729ZM14.5673 163.309C14.6367 163.531 14.7637 163.731 14.9354 163.888L19.3783 168.331L30.7356 157L26.24 152.504C26.0663 152.347 25.8598 152.23 25.6353 152.163H25.0307C22.5417 152.903 20.2767 154.252 18.4405 156.088C16.6043 157.924 15.255 160.189 14.5147 162.678C14.4894 162.89 14.5073 163.105 14.5673 163.309Z" fill="#6AB3F2"/>
<defs>
<linearGradient id="paint0_linear_2007_36" x1="86.0789" y1="129.323" x2="170.042" y2="36.073" gradientUnits="userSpaceOnUse">
<stop offset="0.135" stop-color="#FFF200" stop-opacity="0"/>
<stop offset="1" stop-color="#FFF200"/>
</linearGradient>
<linearGradient id="paint1_linear_2007_36" x1="115.676" y1="179.705" x2="73.612" y2="212.567" gradientUnits="userSpaceOnUse">
<stop stop-color="#FFF200"/>
<stop offset="1" stop-color="#FFF200" stop-opacity="0"/>
</linearGradient>
</defs>
</svg>
